# xmcd CD database file generated by Grip 3.0.4
# 
# Track frame offsets:
#       187
#       11562
#       22855
#       33262
#       44385
#       53192
#       64255
#       74970
#       85110
#       97650
# 
# Disc length: 1495 seconds
# 
# Revision: 2
# Processed by: cddbd v1.5PL3 Copyright (c) Steve Scherf et al.
# Submitted via: Grip 3.0.4
# 
DISCID=7a05d50a
DTITLE=Patsy Cline - Country Great
DYEAR=1988
DGENRE=Country
TTITLE0=That Wonderful Someone
TTITLE1=Hungry for Love
TTITLE2=Too Many Secrets
TTITLE3=Don't Ever Leave Me Again
TTITLE4=Ain't No Wheels On This Ship
TTITLE5=I Can't Forget
TTITLE6=I Don't Wanta
TTITLE7=Three Cigarettes (in an Ashtray)
TTITLE8=Fingerprints
TTITLE9=Then You'll Know
EXTD=MCA Records
EXTT0=
EXTT1=
EXTT2=
EXTT3=
EXTT4=
EXTT5=
EXTT6=
EXTT7=
EXTT8=
EXTT9=
PLAYORDER=
